<svg width="100" height="100" viewBox="0 0 300 300" fill="none" xmlns="http://www.w3.org/2000/svg">
<path d="M48.041 189.279H63.8837V157.583H89.8803V143.672H63.8837V124.745H90.188V110.721H48.041V189.279Z" fill="#EF7A75"/>
<path d="M111.562 136.034H96.6223V189.282H111.562V136.034Z" fill="#EF7A75"/>
<path d="M149.593 110.721H134.66V123.183C139.156 126.646 144.209 129.217 149.593 130.814V110.721Z" fill="#EF7A75"/>
<path d="M190.639 110.721H175.706V130.923C181.084 129.371 186.127 126.855 190.639 123.453V110.721Z" fill="#EF7A75"/>
<path d="M243.521 134.663C236.909 134.663 230.868 138.54 227.904 147.432V136.034H213.08V189.282H228.02V171.039C228.02 155.874 233.262 148.694 240.899 148.694C242.728 148.694 245.35 148.92 248.544 150.626L251.962 136.376C249.566 135.121 246.373 134.663 243.521 134.663Z" fill="#EF7A75"/>
<path d="M198.588 122.171C196.116 124.516 193.456 126.588 190.636 128.379C186.024 131.303 180.995 133.474 175.703 134.807C171.549 135.863 167.227 136.41 162.824 136.41C158.421 136.41 153.86 135.836 149.59 134.711C144.297 133.333 139.262 131.118 134.656 128.137C131.976 126.403 129.432 124.414 127.07 122.168C126.721 121.839 126.376 121.504 126.041 121.169L114.957 132.246C120.759 138.041 127.419 142.66 134.656 145.976V189.275H149.59V150.793C153.904 151.638 158.328 152.075 162.824 152.075C167.32 152.075 171.504 151.658 175.703 150.858V189.272H190.636V146.133C198.01 142.81 204.803 138.13 210.694 132.243L199.617 121.166C199.282 121.501 198.94 121.836 198.588 122.164V122.171Z" fill="#EF7A75"/>
<path d="M111.566 110.721H96.6257V125.662H111.566V110.721Z" fill="#EF7A75"/>
</svg>
