<svg width="25" height="24" viewBox="0 0 25 24" fill="none" xmlns="http://www.w3.org/2000/svg">
<path d="M12.333 22C6.81001 22 2.33301 17.523 2.33301 12C2.33301 6.477 6.81001 2 12.333 2C17.856 2 22.333 6.477 22.333 12C22.333 17.523 17.856 22 12.333 22ZM12.333 20C14.4547 20 16.4896 19.1571 17.9899 17.6569C19.4902 16.1566 20.333 14.1217 20.333 12C20.333 9.87827 19.4902 7.84344 17.9899 6.34315C16.4896 4.84285 14.4547 4 12.333 4C10.2113 4 8.17644 4.84285 6.67615 6.34315C5.17586 7.84344 4.33301 9.87827 4.33301 12C4.33301 14.1217 5.17586 16.1566 6.67615 17.6569C8.17644 19.1571 10.2113 20 12.333 20ZM11.333 7H13.333V9H11.333V7ZM11.333 11H13.333V17H11.333V11Z" fill="#312F2E"/>
</svg>
