<svg width="24" height="24" viewBox="0 0 138 138" fill="none" xmlns="http://www.w3.org/2000/svg">
    <path d="M68.639 136.6C106.173 136.6 136.6 106.173 136.6 68.6392C136.6 31.1055 106.173 0.678467 68.639 0.678467C31.1053 0.678467 0.678223 31.1055 0.678223 68.6392C0.678223 106.173 31.1053 136.6 68.639 136.6Z" fill="white"/>
    <path d="M68.6391 137.278C30.7914 137.278 0 106.487 0 68.6391C0 30.7914 30.7914 0 68.6391 0C106.487 0 137.278 30.7914 137.278 68.6391C137.278 106.487 106.487 137.278 68.6391 137.278ZM68.6391 1.35675C31.5396 1.35675 1.35675 31.5396 1.35675 68.6391C1.35675 105.739 31.5396 135.921 68.6391 135.921C105.739 135.921 135.921 105.739 135.921 68.6391C135.921 31.5396 105.739 1.35675 68.6391 1.35675Z" fill="#80e876"/>
    <path d="M59.3679 104.01C58.1944 104.01 57.0369 103.736 55.9873 103.211C54.9377 102.686 54.0247 101.924 53.3208 100.985L34.7801 76.2637C34.1845 75.4695 33.7511 74.5657 33.5048 73.604C33.2584 72.6424 33.2039 71.6416 33.3443 70.6588C33.4847 69.6761 33.8174 68.7306 34.3232 67.8764C34.829 67.0222 35.4981 66.276 36.2923 65.6804C37.0865 65.0848 37.9903 64.6514 38.952 64.4051C39.9136 64.1587 40.9144 64.1042 41.8972 64.2446C42.8799 64.3851 43.8254 64.7177 44.6796 65.2235C45.5338 65.7293 46.28 66.3984 46.8756 67.1926L59.0056 83.3647L90.1599 36.6339C91.2726 34.967 93.0017 33.8102 94.9671 33.4177C96.9325 33.0253 98.9733 33.4293 100.641 34.5411C102.308 35.6528 103.466 37.3812 103.86 39.3463C104.254 41.3115 103.851 43.3525 102.74 45.0208L65.6587 100.643C64.9879 101.649 64.0857 102.479 63.0278 103.065C61.9698 103.65 60.787 103.973 59.5783 104.007C59.5082 104.008 59.4381 104.01 59.3679 104.01Z" fill="#2a4f27"/>
</svg>
