<svg width="120" height="118" viewBox="0 0 120 118" fill="none" xmlns="http://www.w3.org/2000/svg">
<g clip-path="url(#clip0_1567_8917)">
<path d="M76.1809 26.3433H43.8461C43.1093 26.3442 42.4029 26.6373 41.8818 27.1583C41.3608 27.6793 41.0677 28.3858 41.0668 29.1226V100.987L40.6962 101.1L32.764 103.529C32.3881 103.644 31.982 103.605 31.635 103.42C31.2879 103.236 31.0283 102.921 30.913 102.545L7.31821 25.4743C7.20338 25.0983 7.24252 24.6922 7.42701 24.3451C7.6115 23.998 7.92626 23.7384 8.3021 23.6232L20.5257 19.8804L55.9622 9.03356L68.1857 5.29071C68.3717 5.23346 68.5672 5.21345 68.761 5.23184C68.9547 5.25022 69.143 5.30664 69.3149 5.39785C69.4868 5.48907 69.6391 5.61329 69.763 5.76341C69.8868 5.91354 69.9799 6.08662 70.0368 6.27274L76.0679 25.9727L76.1809 26.3433Z" fill="#F2F2F2"/>
<path d="M83.2368 25.9727L75.9679 2.2297C75.8469 1.83409 75.6492 1.4662 75.386 1.14703C75.1229 0.827868 74.7994 0.563689 74.4341 0.369591C74.0688 0.175493 73.6688 0.0552778 73.257 0.0158207C72.8452 -0.0236364 72.4297 0.0184373 72.0342 0.139633L54.8486 5.39999L19.4139 16.2487L2.22836 21.5109C1.43001 21.756 0.76154 22.3079 0.36968 23.0454C-0.0221813 23.7829 -0.105418 24.6458 0.138243 25.4446L24.9818 106.588C25.1798 107.233 25.5792 107.797 26.1214 108.199C26.6636 108.6 27.3202 108.817 27.9947 108.817C28.3069 108.817 28.6173 108.771 28.9155 108.678L40.6962 105.073L41.0668 104.958V104.57L40.6962 104.684L28.8062 108.324C28.1015 108.539 27.3404 108.466 26.6898 108.12C26.0392 107.775 25.5523 107.185 25.3358 106.481L0.494075 25.3353C0.386809 24.9864 0.349424 24.6197 0.384059 24.2563C0.418694 23.8929 0.524667 23.5399 0.695915 23.2176C0.867163 22.8952 1.10032 22.6098 1.38204 22.3777C1.66375 22.1455 1.98848 21.9712 2.33765 21.8648L19.5232 16.6026L54.958 5.75575L72.1436 0.493539C72.4084 0.412716 72.6837 0.371506 72.9606 0.371248C73.5549 0.372582 74.1331 0.564163 74.6106 0.917929C75.088 1.2717 75.4397 1.76906 75.614 2.33717L82.8495 25.9727L82.9644 26.3432H83.3498L83.2368 25.9727Z" fill="#3F3D56"/>
<path d="M22.7315 23.6838C22.3743 23.6835 22.0267 23.5688 21.7395 23.3565C21.4524 23.1442 21.2408 22.8454 21.1359 22.5041L18.7493 14.7086C18.6851 14.4992 18.6629 14.2792 18.6838 14.0612C18.7047 13.8432 18.7683 13.6315 18.8711 13.4381C18.9738 13.2447 19.1136 13.0734 19.2826 12.9341C19.4515 12.7947 19.6463 12.69 19.8557 12.6259L52.4553 2.64556C52.8782 2.51651 53.335 2.56052 53.7255 2.76793C54.116 2.97534 54.4082 3.32921 54.5381 3.75186L56.9247 11.5474C57.0536 11.9703 57.0096 12.4271 56.8022 12.8176C56.5948 13.208 56.241 13.5003 55.8183 13.6302L23.2187 23.6106C23.0608 23.659 22.8966 23.6837 22.7315 23.6838V23.6838Z" fill="#EF7A75"/>
<path d="M35.2334 8.32966C37.28 8.32966 38.9392 6.67052 38.9392 4.62388C38.9392 2.57723 37.28 0.918091 35.2334 0.918091C33.1867 0.918091 31.5276 2.57723 31.5276 4.62388C31.5276 6.67052 33.1867 8.32966 35.2334 8.32966Z" fill="#EF7A75"/>
<path d="M35.2334 6.97046C36.5294 6.97046 37.58 5.91984 37.58 4.62384C37.58 3.32784 36.5294 2.27722 35.2334 2.27722C33.9374 2.27722 32.8868 3.32784 32.8868 4.62384C32.8868 5.91984 33.9374 6.97046 35.2334 6.97046Z" fill="white"/>
<path d="M111.662 107.871H49.0343C48.6167 107.87 48.2164 107.704 47.9211 107.409C47.6259 107.113 47.4598 106.713 47.4593 106.296V31.2534C47.4598 30.8359 47.6259 30.4355 47.9211 30.1403C48.2164 29.845 48.6167 29.6789 49.0343 29.6785H111.662C112.08 29.6789 112.48 29.845 112.775 30.1403C113.07 30.4356 113.237 30.8359 113.237 31.2534V106.296C113.236 106.713 113.07 107.113 112.775 107.409C112.48 107.704 112.08 107.87 111.662 107.871V107.871Z" fill="#E6E6E6"/>
<path d="M82.8495 25.9727H43.8461C43.0111 25.9738 42.2106 26.3061 41.6201 26.8966C41.0297 27.487 40.6974 28.2875 40.6962 29.1226V104.684L41.0668 104.57V29.1226C41.0677 28.3857 41.3608 27.6793 41.8818 27.1583C42.4029 26.6372 43.1093 26.3441 43.8461 26.3432H82.9644L82.8495 25.9727ZM116.85 25.9727H43.8461C43.0111 25.9738 42.2106 26.3061 41.6201 26.8966C41.0297 27.487 40.6974 28.2875 40.6962 29.1226V113.985C40.6974 114.82 41.0297 115.621 41.6201 116.211C42.2106 116.802 43.0111 117.134 43.8461 117.135H116.85C117.685 117.134 118.486 116.802 119.076 116.211C119.667 115.621 119.999 114.82 120 113.985V29.1226C119.999 28.2875 119.667 27.487 119.076 26.8966C118.486 26.3061 117.685 25.9738 116.85 25.9727V25.9727ZM119.629 113.985C119.629 114.722 119.335 115.428 118.814 115.949C118.293 116.47 117.587 116.763 116.85 116.764H43.8461C43.1093 116.763 42.4029 116.47 41.8818 115.949C41.3608 115.428 41.0677 114.722 41.0668 113.985V29.1226C41.0677 28.3857 41.3608 27.6793 41.8818 27.1583C42.4029 26.6372 43.1093 26.3441 43.8461 26.3432H116.85C117.587 26.3441 118.293 26.6372 118.814 27.1583C119.335 27.6793 119.629 28.3857 119.629 29.1226V113.985Z" fill="#3F3D56"/>
<path d="M97.3948 34.1254H63.3015C62.8594 34.1249 62.4355 33.949 62.1229 33.6364C61.8103 33.3238 61.6344 32.8999 61.6339 32.4578V24.3051C61.6344 23.8629 61.8103 23.4391 62.1229 23.1264C62.4356 22.8138 62.8594 22.6379 63.3015 22.6375H97.3948C97.8369 22.6379 98.2607 22.8138 98.5734 23.1264C98.886 23.4391 99.0619 23.8629 99.0624 24.3051V32.4578C99.0619 32.8999 98.886 33.3238 98.5734 33.6364C98.2608 33.949 97.8369 34.1249 97.3948 34.1254V34.1254Z" fill="#EF7A75"/>
<path d="M80.3481 23.1933C82.3948 23.1933 84.0539 21.5342 84.0539 19.4875C84.0539 17.4409 82.3948 15.7817 80.3481 15.7817C78.3015 15.7817 76.6423 17.4409 76.6423 19.4875C76.6423 21.5342 78.3015 23.1933 80.3481 23.1933Z" fill="#EF7A75"/>
<path d="M80.3481 21.7447C81.5947 21.7447 82.6053 20.7341 82.6053 19.4875C82.6053 18.2409 81.5947 17.2303 80.3481 17.2303C79.1015 17.2303 78.0909 18.2409 78.0909 19.4875C78.0909 20.7341 79.1015 21.7447 80.3481 21.7447Z" fill="white"/>
</g>
<defs>
<clipPath id="clip0_1567_8917">
<rect width="120" height="117.135" fill="white"/>
</clipPath>
</defs>
</svg>
