<svg width="300" height="300" viewBox="0 0 300 300" fill="none" xmlns="http://www.w3.org/2000/svg">
<path d="M125.966 78.6735H98.8479V101.303C107.012 107.59 116.185 112.26 125.966 115.159V78.6735Z" fill="#EF7A75"/>
<path d="M200.502 78.6735H173.385V115.361C183.152 112.54 192.311 107.976 200.502 101.795V78.6735Z" fill="#EF7A75"/>
<path d="M214.94 99.4632C210.455 103.723 205.624 107.484 200.503 110.738C192.126 116.044 182.995 119.99 173.385 122.41C165.839 124.328 157.993 125.323 150 125.323C142.007 125.323 133.723 124.277 125.966 122.239C116.359 119.737 107.214 115.716 98.8478 110.301C93.9761 107.152 89.3572 103.538 85.0701 99.4632C84.4342 98.8683 83.8119 98.2598 83.2034 97.6512L63.0735 117.767C73.6068 128.287 85.7025 136.68 98.8444 142.701V221.326H125.962V151.45C133.798 152.985 141.829 153.778 149.997 153.778C158.164 153.778 165.757 153.022 173.381 151.569V221.326H200.499V142.991C213.891 136.957 226.226 128.462 236.92 117.767L216.803 97.6512C216.195 98.2598 215.573 98.8683 214.937 99.4632H214.94Z" fill="#EF7A75"/>
</svg>
