<svg width="100" height="100" viewBox="0 0 100 100" fill="none" xmlns="http://www.w3.org/2000/svg">
<path d="M41.9885 26.2246H32.9492V33.7676C35.6706 35.8634 38.7281 37.4201 41.9885 38.3864V26.2246V26.2246Z" fill="#EF7A75"/>
<path d="M66.8342 26.2246H57.7949V38.4537C61.0508 37.5135 64.1038 35.9921 66.8342 33.9317V26.2246Z" fill="#EF7A75"/>
<path d="M71.6466 33.1545C70.1515 34.5745 68.5412 35.828 66.8341 36.9129C64.0421 38.6816 60.9982 39.9967 57.7948 40.8035C55.2797 41.4428 52.6643 41.7745 49.9999 41.7745C47.3355 41.7745 44.5743 41.4257 41.9885 40.7465C38.7862 39.9124 35.7378 38.5722 32.9492 36.7671C31.3253 35.7175 29.7857 34.5129 28.3566 33.1545C28.1446 32.9562 27.9372 32.7534 27.7344 32.5505L21.0244 39.2559C24.5355 42.7625 28.5674 45.5602 32.9481 47.5671V73.7756H41.9874V50.4833C44.5993 50.995 47.2763 51.2594 49.9988 51.2594C52.7213 51.2594 55.2523 51.0075 57.7936 50.5232V73.7756H66.833V47.6639C71.2968 45.6525 75.4085 42.8206 78.9731 39.2559L72.2677 32.5505C72.0649 32.7534 71.8575 32.9562 71.6455 33.1545H71.6466Z" fill="#EF7A75"/>
</svg>
