<svg width="80" height="80" viewBox="0 0 100 100" fill="none" xmlns="http://www.w3.org/2000/svg">
<path d="M16.0137 63.093H21.2946V52.5277H29.9601V47.8907H21.2946V41.5819H30.0627V36.9072H16.0137V63.093Z" fill="#EF7A75"/>
<path d="M37.1876 45.3447H32.2075V63.094H37.1876V45.3447Z" fill="#EF7A75"/>
<path d="M49.8645 36.9072H44.8867V41.0611C46.3853 42.2155 48.0696 43.0725 49.8645 43.6047V36.9072Z" fill="#EF7A75"/>
<path d="M63.5464 36.9072H58.5686V43.6411C60.3612 43.1238 62.0421 42.285 63.5464 41.1511V36.9072Z" fill="#EF7A75"/>
<path d="M81.1739 44.8877C78.9699 44.8877 76.9562 46.18 75.9682 49.1441V45.3447H71.0269V63.094H76.0069V57.0131C76.0069 51.9578 77.7539 49.5646 80.2998 49.5646C80.9095 49.5646 81.7835 49.6398 82.8479 50.2085L83.9875 45.4586C83.1887 45.0404 82.1243 44.8877 81.1739 44.8877V44.8877Z" fill="#EF7A75"/>
<path d="M66.196 40.7237C65.3721 41.5055 64.4855 42.1961 63.5453 42.7932C62.008 43.7676 60.3316 44.4912 58.5675 44.9357C57.1829 45.2878 55.7425 45.4702 54.2746 45.4702C52.8068 45.4702 51.2866 45.2787 49.8633 44.9038C48.0991 44.4445 46.4205 43.706 44.8855 42.7123C43.992 42.1345 43.1442 41.4713 42.3567 40.7226C42.2405 40.6132 42.1254 40.5015 42.0137 40.3898L38.3191 44.0821C40.253 46.0137 42.4729 47.5533 44.8855 48.6588V63.0918H49.8633V50.2645C51.3014 50.5459 52.7761 50.6918 54.2746 50.6918C55.7732 50.6918 57.1681 50.5528 58.5675 50.2861V63.0907H63.5453V48.7112C66.0034 47.6035 68.2678 46.0434 70.2313 44.081L66.539 40.3887C66.4274 40.5004 66.3134 40.612 66.196 40.7214V40.7237Z" fill="#EF7A75"/>
<path d="M37.1886 36.9072H32.2085V41.8873H37.1886V36.9072Z" fill="#EF7A75"/>
</svg>
