<svg width="24" height="24" viewBox="0 0 24 24" fill="none" xmlns="http://www.w3.org/2000/svg">
<g clip-path="url(#clip0_24_4892)">
<path d="M15.3 5.55C14.54 5.54987 13.8103 5.84812 13.2679 6.38057C12.7256 6.91301 12.4139 7.63709 12.4 8.397L12.372 9.972C12.3704 10.0566 12.3509 10.1398 12.3148 10.2163C12.2787 10.2928 12.2269 10.3608 12.1627 10.4159C12.0985 10.4709 12.0233 10.5118 11.9422 10.5358C11.8611 10.5597 11.7758 10.5663 11.692 10.555L10.131 10.343C8.07702 10.063 6.10902 9.117 4.22102 7.544C3.62302 10.854 4.79102 13.147 7.60402 14.916L9.35102 16.014C9.43403 16.0662 9.50299 16.1379 9.55187 16.2229C9.60075 16.3078 9.62806 16.4035 9.63141 16.5015C9.63477 16.5995 9.61407 16.6968 9.57111 16.7849C9.52816 16.873 9.46426 16.9493 9.38502 17.007L7.79302 18.17C8.74002 18.229 9.63902 18.187 10.385 18.039C15.103 17.097 18.24 13.547 18.24 7.691C18.24 7.213 17.228 5.55 15.3 5.55ZM10.4 8.36C10.4175 7.39605 10.7189 6.45867 11.2666 5.66522C11.8142 4.87177 12.5838 4.25752 13.4789 3.89937C14.3741 3.54121 15.3549 3.45508 16.2988 3.65175C17.2426 3.84842 18.1074 4.31915 18.785 5.005C19.496 5 20.101 5.18 21.454 4.36C21.119 6 20.954 6.712 20.24 7.691C20.24 15.333 15.543 19.049 10.777 20C7.50902 20.652 2.75702 19.581 1.39502 18.159C2.08902 18.105 4.90902 17.802 6.53902 16.609C5.16002 15.7 -0.32898 12.47 3.27802 3.786C4.97102 5.763 6.68802 7.109 8.42802 7.823C9.58602 8.298 9.87002 8.288 10.401 8.361L10.4 8.36Z" fill="white"/>
</g>
<defs>
<clipPath id="clip0_24_4892">
<rect width="24" height="24" fill="white"/>
</clipPath>
</defs>
</svg>
